<svg width="24" height="19" viewBox="0 0 24 19" fill="none" xmlns="http://www.w3.org/2000/svg">
<g id="formkit:eye">
<path id="Vector" d="M12 16.8077C9.66002 16.8077 7.39502 15.9162 5.25002 14.1769C3.49502 12.73 2.26502 11.0639 1.69502 10.1869C1.5627 9.98371 1.49243 9.748 1.49243 9.50732C1.49243 9.26664 1.5627 9.03093 1.69502 8.8277C2.26502 7.95078 3.49502 6.27001 5.25002 4.8377C9.51002 1.34463 14.475 1.34463 18.735 4.8377C20.49 6.28463 21.72 7.95078 22.29 8.8277C22.56 9.25155 22.56 9.76309 22.29 10.1869C21.72 11.0639 20.49 12.7446 18.735 14.1769C16.605 15.9308 14.34 16.8077 11.985 16.8077H12ZM3.04502 9.50001C3.60002 10.3331 4.69502 11.7946 6.22502 13.0516C9.93002 16.0916 14.07 16.0916 17.775 13.0516C19.305 11.7946 20.4 10.3185 20.955 9.50001C20.4 8.66693 19.305 7.2054 17.775 5.94847C14.07 2.90847 9.93002 2.90847 6.22502 5.94847C4.69502 7.2054 3.60002 8.68155 3.04502 9.50001Z" fill="#989898"/>
<path id="Vector_2" d="M12 13.1539C11.0054 13.1539 10.0516 12.7689 9.34835 12.0837C8.64509 11.3985 8.25 10.4691 8.25 9.50004C8.25 8.53098 8.64509 7.60161 9.34835 6.91638C10.0516 6.23115 11.0054 5.84619 12 5.84619C12.9946 5.84619 13.9484 6.23115 14.6516 6.91638C15.3549 7.60161 15.75 8.53098 15.75 9.50004C15.75 10.4691 15.3549 11.3985 14.6516 12.0837C13.9484 12.7689 12.9946 13.1539 12 13.1539ZM12 7.30773C10.755 7.30773 9.75 8.28696 9.75 9.50004C9.75 10.7131 10.755 11.6923 12 11.6923C13.245 11.6923 14.25 10.7131 14.25 9.50004C14.25 8.28696 13.245 7.30773 12 7.30773Z" fill="#989898"/>
</g>
</svg>
