<svg width="13" height="16" viewBox="0 0 13 16" fill="none" xmlns="http://www.w3.org/2000/svg">
<path d="M10.9529 16H2.04712C1.50419 16 0.983495 15.7879 0.599586 15.4105C0.215678 15.033 0 14.5211 0 13.9873V13.3215C0 10.1262 2.91591 7.52501 6.5 7.52501C10.0841 7.52501 13 10.1246 13 13.3215V13.9873C13 14.5211 12.7843 15.033 12.4004 15.4105C12.0165 15.7879 11.4958 16 10.9529 16ZM6.5 8.33169C3.3671 8.33169 0.818846 10.5698 0.818846 13.3231V13.9889C0.818846 14.3092 0.948253 14.6164 1.1786 14.8428C1.40894 15.0693 1.72136 15.1965 2.04712 15.1965H10.9529C11.2786 15.1965 11.5911 15.0693 11.8214 14.8428C12.0517 14.6164 12.1812 14.3092 12.1812 13.9889V13.3215C12.1812 10.5698 9.63291 8.33169 6.5 8.33169ZM6.5 6.31821C5.86446 6.31836 5.24315 6.13322 4.71465 5.78619C4.18614 5.43916 3.77417 4.94583 3.53085 4.3686C3.28753 3.79136 3.22378 3.15615 3.34767 2.54329C3.47156 1.93043 3.77752 1.36745 4.22685 0.925566C4.67619 0.483677 5.24871 0.182722 5.87203 0.0607616C6.49534 -0.0611983 7.14144 0.00131542 7.72861 0.240397C8.31579 0.479478 8.81766 0.884388 9.17076 1.40392C9.52386 1.92345 9.71233 2.53426 9.71233 3.1591C9.71168 3.99661 9.37306 4.79965 8.77079 5.39193C8.16853 5.98422 7.35184 6.31735 6.5 6.31821ZM6.5 0.805878C6.02638 0.805719 5.56335 0.943666 5.16949 1.20227C4.77562 1.46087 4.46861 1.82851 4.28729 2.25869C4.10597 2.68886 4.05848 3.16225 4.15084 3.61896C4.2432 4.07567 4.47125 4.49519 4.80615 4.82446C5.14105 5.15372 5.56775 5.37794 6.03228 5.46875C6.4968 5.55955 6.97829 5.51286 7.41582 5.33459C7.85336 5.15632 8.22729 4.85448 8.49032 4.46724C8.75334 4.07999 8.89365 3.62475 8.89349 3.1591C8.89284 2.53519 8.64046 1.937 8.19173 1.49583C7.74301 1.05465 7.13459 0.806518 6.5 0.805878Z" fill="#989898"/>
</svg>
