<svg width="13" height="16" viewBox="0 0 13 16" fill="none" xmlns="http://www.w3.org/2000/svg">
<path d="M11 6H10.5V4.09175C10.5 1.79725 8.83975 0 6.4815 0C4.11375 0 2.5 1.8355 2.5 4.09175V6H2C0.897 6 0 6.897 0 8V14C0 15.103 0.897 16 2 16H11C12.103 16 13 15.103 13 14V8C13 6.897 12.103 6 11 6ZM3.5 4.09175C3.5 2.38725 4.665 1 6.4815 1C8.27925 1 9.5 2.358 9.5 4.09175V6H3.5V4.09175ZM12 14C12 14.5513 11.5513 15 11 15H2.00002C1.44877 15 1.00002 14.5513 1.00002 14V8C1.00002 7.44875 1.44877 7 2.00002 7H11C11.5513 7 12 7.44875 12 8V14ZM6.50002 9C5.94777 9 5.50002 9.44775 5.50002 10C5.50002 10.3693 5.70252 10.688 6.00002 10.8612V12.5C6.00002 12.776 6.22402 13 6.50002 13C6.77602 13 7.00002 12.776 7.00002 12.5V10.8612C7.29752 10.688 7.50002 10.369 7.50002 10C7.50002 9.44775 7.05227 9 6.50002 9Z" fill="#989898"/>
</svg>
