<svg width="14" height="14" viewBox="0 0 14 14" fill="none" xmlns="http://www.w3.org/2000/svg">
<g id="material-symbols-light:stylus-outline" clip-path="url(#clip0_18_88)">
<path id="Vector" d="M0.860669 13.9826C0.605103 14.0344 0.387663 13.9707 0.20835 13.7913C0.0296318 13.612 -0.0341107 13.3946 0.0171217 13.139L0.618507 10.2296L3.7702 13.3812L0.860669 13.9826ZM3.7702 13.3812L0.618507 10.2296L10.4382 0.410148C10.7116 0.136716 11.05 0 11.4533 0C11.8566 0 12.1952 0.137014 12.4693 0.411042L13.5898 1.53158C13.8633 1.80501 14 2.14337 14 2.54667C14 2.94997 13.863 3.28863 13.5889 3.56266L3.7702 13.3812ZM11.0753 1.04279L2.05004 10.0509L3.94891 11.9497L12.9563 2.92465C13.0599 2.82159 13.1118 2.69292 13.1118 2.53863C13.1118 2.38374 13.0602 2.25477 12.9572 2.15171L11.8491 1.04369C11.7455 0.940034 11.6162 0.888208 11.4613 0.888208C11.307 0.888208 11.1783 0.939737 11.0753 1.04279Z" fill="#989898"/>
</g>
<defs>
<clipPath id="clip0_18_88">
<rect width="14" height="14" fill="white"/>
</clipPath>
</defs>
</svg>
